{
    "asset" : {
        "copyright" : "loafbrr",
        "generator" : "Khronos glTF Blender I/O v1.4.40",
        "version" : "2.0"
    },
    "scene" : 0,
    "scenes" : [
        {
            "name" : "Scene",
            "nodes" : [
                0
            ]
        }
    ],
    "nodes" : [
        {
            "mesh" : 0,
            "name" : "Fence_3"
        }
    ],
    "materials" : [
        {
            "doubleSided" : true,
            "name" : "\u041c\u0430\u0442\u0435\u0440\u0438\u0430\u043b",
            "pbrMetallicRoughness" : {
                "baseColorFactor" : [
                    0.4115656316280365,
                    0.20895713567733765,
                    0.03642179071903229,
                    1
                ],
                "metallicFactor" : 0,
                "roughnessFactor" : 0.5
            }
        }
    ],
    "meshes" : [
        {
            "name" : "Plane.026",
            "primitives" : [
                {
                    "attributes" : {
                        "POSITION" : 0,
                        "NORMAL" : 1,
                        "TEXCOORD_0" : 2,
                        "COLOR_0" : 3
                    },
                    "indices" : 4,
                    "material" : 0
                }
            ]
        }
    ],
    "accessors" : [
        {
            "bufferView" : 0,
            "componentType" : 5126,
            "count" : 633,
            "max" : [
                2,
                3,
                0.1311655044555664
            ],
            "min" : [
                -2,
                -0.02829703688621521,
                -0.05500016734004021
            ],
            "type" : "VEC3"
        },
        {
            "bufferView" : 1,
            "componentType" : 5126,
            "count" : 633,
            "type" : "VEC3"
        },
        {
            "bufferView" : 2,
            "componentType" : 5126,
            "count" : 633,
            "type" : "VEC2"
        },
        {
            "bufferView" : 3,
            "componentType" : 5123,
            "count" : 633,
            "normalized" : true,
            "type" : "VEC4"
        },
        {
            "bufferView" : 4,
            "componentType" : 5123,
            "count" : 1428,
            "type" : "SCALAR"
        }
    ],
    "bufferViews" : [
        {
            "buffer" : 0,
            "byteLength" : 7596,
            "byteOffset" : 0
        },
        {
            "buffer" : 0,
            "byteLength" : 7596,
            "byteOffset" : 7596
        },
        {
            "buffer" : 0,
            "byteLength" : 5064,
            "byteOffset" : 15192
        },
        {
            "buffer" : 0,
            "byteLength" : 5064,
            "byteOffset" : 20256
        },
        {
            "buffer" : 0,
            "byteLength" : 2856,
            "byteOffset" : 25320
        }
    ],
    "buffers" : [
        {
            "byteLength" : 28176,
            "uri" : "data:application/octet-stream;base64,"
        }
    ]
}
